# xmcd
#
# Track frame offsets:
#	150
#	5725
#	12402
#	18387
#	24335
#	30495
#	41089
#	49712
#	57992
#	64917
#	71452
#	78577
#	85062
#	90962
#	96907
#	102845
#	108790
#	114727
#	121810
#	128907
#	136000
#	143787
#	151535
#	159340
#	165297
#	171272
#	177250
#	183245
#	190027
#	196810
#	204922
#	209802
#	213682
#	220142
#	225642
#	231010
#	236057
#	240687
#	245577
#	250347
#	255240
#	261122
#	266762
#	274857
#	280170
#	284637
#	289645
#	294637
#	300220
#
# Disc length: 4085
#
# Revision: 1
# Processed by: cddbd v1.5.1PL0 Copyright (c) Steve Scherf et al.
# Submitted via: CDex 1.51
# Normalized: r0:TRMNUM
#
DISCID=af0ff331
DTITLE=Irma Miria - Salmos Ano C  -  CD 2
DYEAR=2003
DGENRE=Religioso
TTITLE0=Comum Dom 5
TTITLE1=Comum Dom 6
TTITLE2=Comum Dom 7
TTITLE3=Comum Dom 8
TTITLE4=Comum Dom 9
TTITLE5=Comum Dom 10
TTITLE6=Comum Dom 11
TTITLE7=Comum Dom 12
TTITLE8=Comum Dom 13
TTITLE9=Comum Dom 14
TTITLE10=Comum Dom 15
TTITLE11=Comum Dom 16
TTITLE12=Comum Dom 17
TTITLE13=Comum Dom 18
TTITLE14=Comum Dom 19
TTITLE15=Comum Dom 20
TTITLE16=Comum Dom 21
TTITLE17=Comum Dom 22
TTITLE18=Comum Dom 23
TTITLE19=Comum Dom 24
TTITLE20=Comum Dom 25
TTITLE21=Comum Dom 26
TTITLE22=Comum Dom 27
TTITLE23=Comum Dom 28
TTITLE24=Comum Dom 29
TTITLE25=Comum Dom 30
TTITLE26=Comum Dom 31
TTITLE27=Comum Dom 32
TTITLE28=Comum Dom 33
TTITLE29=Comum Dom 34
TTITLE30=NS Conceicao 8 dez
TTITLE31=Apresentacao 24
TTITLE32=S Joao Batista Vigilia sl 71
TTITLE33=S Joao Batista Dia sl 139
TTITLE34=S Pedro e S Paulo Vigilia sl 19
TTITLE35=S Pedro e S Paulo Dia sl 34
TTITLE36=Transfiguracao sl 97
TTITLE37=Assuncao Vigilia sl 132
TTITLE38=Assuncao Dia sl 45
TTITLE39=Santa Cruz
TTITLE40=NS Aparecida sl 45
TTITLE41=Todos os Santos 24
TTITLE42=Finados 1 sl 27
TTITLE43=Finados 2 sl 25
TTITLE44=Finados 3 sl 42
TTITLE45=Finados 4 sl 23
TTITLE46=Finados 5 sl 130
TTITLE47=Finados 6 sl 115
TTITLE48=Dedicacao Balisica Latrao sl 46
EXTD=YEAR: 2003
EXTT0=
EXTT1=
EXTT2=
EXTT3=
EXTT4=
EXTT5=
EXTT6=
EXTT7=
EXTT8=
EXTT9=
EXTT10=
EXTT11=
EXTT12=
EXTT13=
EXTT14=
EXTT15=
EXTT16=
EXTT17=
EXTT18=
EXTT19=
EXTT20=
EXTT21=
EXTT22=
EXTT23=
EXTT24=
EXTT25=
EXTT26=
EXTT27=
EXTT28=
EXTT29=
EXTT30=
EXTT31=
EXTT32=
EXTT33=
EXTT34=
EXTT35=
EXTT36=
EXTT37=
EXTT38=
EXTT39=
EXTT40=
EXTT41=
EXTT42=
EXTT43=
EXTT44=
EXTT45=
EXTT46=
EXTT47=
EXTT48=
PLAYORDER=
